<?xml version="1.0" encoding="UTF-8" standalone="no"?>
<!-- Created with Inkscape (http://www.inkscape.org/) -->

<svg
   width="600mm"
   height="125mm"
   viewBox="0 0 600 125"
   version="1.1"
   id="svg1"
   xmlns="http://www.w3.org/2000/svg"
   xmlns:svg="http://www.w3.org/2000/svg"
   preserveAspectRatio="none">
  <defs
     id="defs1" />
  <g
     id="layer1">
    <path
       style="fill:#dedee6;fill-opacity:1;stroke-width:0.264583"
       d="M -35.149339,1.971453 -75.566646,69.130781 C -32.703197,103.8824 28.751172,110.22471 66.967178,111.58986 105.41544,112.10006 214.25655,98.568998 282.71316,60.280461 329.61266,35.56199 374.17829,19.344883 432.93793,15.597396 c 25.23038,-1.880547 65.86779,-2.859685 124.21406,22.94947 L 555.12903,1.3639505 Z"
       id="path4-0-3" />
    <path
       style="fill:#dedee6;fill-opacity:1;stroke-width:0.264583"
       d="m 552.21165,-18.557414 -2.86348,53.582479 c 47.12143,22.048579 79.64147,53.778364 151.34205,64.278603 38.44827,0.5102 98.67414,-17.778613 167.13075,-56.067152 44.50154,-26.24409 103.59242,-55.33224 161.32003,-53.65509 38.364,0.367509 88.6611,10.47219878 127.1196,33.03588 l -1.6335,-41.40193 z"
       id="path4-0-3-0" />
    <path
       style="fill:#ebebf0;fill-opacity:1;stroke-width:0.264583"
       d="M -1.1141744,-1.4711471 -1.7843222,77.782733 C 54.157729,96.051813 99.302501,106.5291 142.7191,106.18596 c 38.44827,0.5102 103.31949,-7.574637 171.7761,-45.863177 44.50154,-26.24409 105.06967,-54.2067397 162.79706,-52.5295827 38.36402,0.367504 85.69515,9.1454387 124.15369,31.7091227 l 1.33242,-40.07517546 z"
       id="path4" />
  </g>
</svg>
